<?xml version="1.0" encoding="UTF-8"?>
<svg id="Layer_1" data-name="Layer 1" xmlns="http://www.w3.org/2000/svg" viewBox="0 0 416.52 139.96">
  <defs>
    <style>
      .cls-1 {
        fill: #ec2224;
      }

      .cls-2 {
        fill: #231f20;
      }

      .cls-3 {
        fill: #9b9b9b;
      }
    </style>
  </defs>
  <polygon class="cls-2" points="62.04 62.54 62.02 62.55 62.03 62.53 62.04 62.54"/>
  <polygon class="cls-2" points="82 88.17 71.03 88.17 55.97 69.01 51.59 73.69 51.59 88.17 42.58 88.17 42.58 42.49 51.59 42.49 51.59 62.2 69.73 42.49 80.82 42.49 62.04 62.54 62.03 62.53 62.02 62.55 62.04 62.54 82 88.17"/>
  <polygon class="cls-2" points="62.04 62.54 62.02 62.55 62.03 62.53 62.04 62.54"/>
  <path class="cls-2" d="M91.52,73.4h24.15v-5.38c0-3.92-1.26-7.06-3.78-9.4-2.52-2.35-5.88-3.52-10.05-3.52h-5.22c-2.74,0-5.17.54-7.27,1.62-2.12,1.1-3.76,2.61-4.93,4.58-1.18,1.95-1.76,4.22-1.76,6.79v8.41c0,2.4.58,4.52,1.76,6.37,1.17,1.85,2.81,3.29,4.93,4.31,2.11,1.02,4.53,1.54,7.27,1.54h4.96c2.74,0,5.17-.46,7.27-1.37,2.12-.91,3.76-2.22,4.93-3.92,1.17-1.7,1.76-3.63,1.76-5.8h-8.74c0,1.08-.47,1.97-1.41,2.64s-2.16,1.01-3.68,1.01h-5.09c-1.57,0-2.8-.44-3.72-1.31-.91-.87-1.37-2.02-1.37-3.46v-3.09ZM91.39,70.07v-1.73c0-.16,0-.31.01-.46.08-1.57.55-2.86,1.43-3.85.96-1.08,2.21-1.63,3.78-1.63h5.28c1.53,0,2.74.52,3.65,1.54.89.99,1.35,2.31,1.37,3.94v2.19h-15.53Z"/>
  <path class="cls-3" d="M248.06,73.4h24.15v-5.38c0-3.92-1.26-7.06-3.78-9.4-2.52-2.35-5.88-3.52-10.05-3.52h-5.22c-2.74,0-5.17.54-7.27,1.62-2.12,1.1-3.76,2.61-4.93,4.58-1.18,1.95-1.76,4.22-1.76,6.79v8.41c0,2.4.58,4.52,1.76,6.37,1.17,1.85,2.81,3.29,4.93,4.31,2.11,1.02,4.53,1.54,7.27,1.54h4.96c2.74,0,5.17-.46,7.27-1.37,2.12-.91,3.76-2.22,4.93-3.92,1.17-1.7,1.76-3.63,1.76-5.8h-8.74c0,1.08-.47,1.97-1.41,2.64s-2.16,1.01-3.68,1.01h-5.09c-1.57,0-2.8-.44-3.72-1.31-.91-.87-1.37-2.02-1.37-3.46v-3.09ZM247.93,70.07v-1.73c0-.16,0-.31.01-.46.08-1.57.55-2.86,1.43-3.85.96-1.08,2.21-1.63,3.78-1.63h5.28c1.53,0,2.74.52,3.65,1.54.89.99,1.35,2.31,1.37,3.94v2.19h-15.53Z"/>
  <path class="cls-2" d="M125.62,98.46c-2.28-1.98-3.56-4.58-3.82-7.8h8.74c.09.96.48,1.73,1.17,2.32.7.59,1.57.88,2.61.88h5.35c1.35,0,2.45-.55,3.3-1.66.85-1.11,1.27-2.56,1.27-4.34v-4.24c-1,1.35-2.14,2.4-3.43,3.16-1.28.76-2.56,1.14-3.82,1.14h-4.31c-3.44,0-6.2-1.14-8.29-3.43-2.09-2.28-3.13-5.32-3.13-9.1v-19.77h8.87v19.9c0,1.44.36,2.6,1.08,3.49s1.66,1.34,2.84,1.34h3.79c1.44,0,2.74-.6,3.92-1.79,1.17-1.2,2-2.77,2.48-4.73v-18.21h8.87v32.24c0,2.7-.55,5.07-1.66,7.11-1.11,2.04-2.69,3.63-4.73,4.76-2.05,1.13-4.39,1.7-7.05,1.7h-5.35c-3.52,0-6.43-.99-8.71-2.97Z"/>
  <path class="cls-3" d="M201.22,42.5h8.88v16.38c.96-1.13,2.14-2.04,3.56-2.74,1.41-.7,2.77-1.04,4.08-1.04h4.05c3.48,0,6.28,1.09,8.39,3.26,2.11,2.18,3.16,5.05,3.16,8.61v21.21h-8.87v-20.88c0-1.35-.36-2.44-1.08-3.26-.72-.83-1.64-1.24-2.77-1.24h-4.05c-1.52,0-2.88.55-4.08,1.66-1.2,1.11-1.99,2.56-2.38,4.34v19.38h-8.88v-45.68Z"/>
  <path class="cls-3" d="M278.22,55.62h8.22v3.52c.91-1.22,2.08-2.2,3.49-2.94,1.41-.74,2.8-1.11,4.14-1.11h4.11c2.61,0,4.92.53,6.92,1.6,2,1.07,3.55,2.56,4.63,4.47,1.09,1.92,1.63,4.11,1.63,6.59v7.31c0,2.7-.54,5.08-1.63,7.15-1.09,2.07-2.61,3.67-4.57,4.8-1.96,1.13-4.22,1.7-6.79,1.7h-4.24c-1.22,0-2.47-.28-3.75-.85-1.28-.57-2.38-1.33-3.3-2.28v15.66h-8.88v-45.62ZM297.21,81.07c1.61,0,2.89-.61,3.85-1.83.96-1.22,1.43-2.83,1.43-4.83v-6c0-1.7-.49-3.07-1.47-4.11-.98-1.04-2.27-1.57-3.88-1.57h-3.98c-1.26,0-2.46.51-3.59,1.53-1.13,1.02-1.96,2.34-2.48,3.95v6.46c.22,1.92.88,3.46,1.99,4.63,1.11,1.17,2.47,1.76,4.08,1.76h4.05Z"/>
  <path class="cls-1" d="M91.4,67.88c-.01.15-.01.3-.01.46v-.46h.01Z"/>
  <polygon class="cls-3" points="362.43 122.34 334.27 81.13 314.61 109.18 310.51 106.31 334.32 72.34 366.56 119.52 362.43 122.34"/>
  <polygon class="cls-3" points="380.73 99.31 336.51 69.25 395.27 29.89 398.06 34.04 345.45 69.28 383.54 95.18 380.73 99.31"/>
  <path class="cls-3" d="M334.28,67.02l-16.64-23.24,4.07-2.91,12.45,17.4c6.79-10.04,28.46-42.06,28.86-42.67l4.59,1.37-33.34,50.04Z"/>
  <path class="cls-2" d="M190.78,71.47v-28.98h-9.07l-24.28,30.54v6.4h24.35v8.74h9v-8.74h5.74v-7.96h-5.74ZM182.04,71.86h-14.37l14.3-18.08h.07v18.08Z"/>
</svg>