<?xml version="1.0" encoding="UTF-8"?>
<svg id="Layer_1" xmlns="http://www.w3.org/2000/svg" version="1.1" viewBox="0 0 416.5 140">
  <!-- Generator: Adobe Illustrator 30.0.0, SVG Export Plug-In . SVG Version: 2.1.1 Build 123)  -->
  <defs>
    <style>
      .st0 {
        fill: #1ea56b;
      }

      .st1 {
        fill: #ec2224;
      }

      .st2 {
        fill: #231f20;
      }
    </style>
  </defs>
  <polygon class="st2" points="62 62.5 62 62.6 62 62.5 62 62.5"/>
  <polygon class="st2" points="82 88.2 71 88.2 56 69 51.6 73.7 51.6 88.2 42.6 88.2 42.6 42.5 51.6 42.5 51.6 62.2 69.7 42.5 80.8 42.5 62 62.5 62 62.5 62 62.6 62 62.5 82 88.2"/>
  <polygon class="st2" points="62 62.5 62 62.6 62 62.5 62 62.5"/>
  <path class="st2" d="M91.5,73.4h24.1v-5.4c0-3.9-1.3-7.1-3.8-9.4-2.5-2.4-5.9-3.5-10.1-3.5h-5.2c-2.7,0-5.2.5-7.3,1.6-2.1,1.1-3.8,2.6-4.9,4.6-1.2,2-1.8,4.2-1.8,6.8v8.4c0,2.4.6,4.5,1.8,6.4,1.2,1.8,2.8,3.3,4.9,4.3,2.1,1,4.5,1.5,7.3,1.5h5c2.7,0,5.2-.5,7.3-1.4,2.1-.9,3.8-2.2,4.9-3.9,1.2-1.7,1.8-3.6,1.8-5.8h-8.7c0,1.1-.5,2-1.4,2.6s-2.2,1-3.7,1h-5.1c-1.6,0-2.8-.4-3.7-1.3-.9-.9-1.4-2-1.4-3.5v-3.1ZM91.4,70.1v-1.7c0-.2,0-.3,0-.5,0-1.6.5-2.9,1.4-3.8,1-1.1,2.2-1.6,3.8-1.6h5.3c1.5,0,2.7.5,3.7,1.5.9,1,1.4,2.3,1.4,3.9v2.2h-15.5Z"/>
  <path class="st0" d="M248.1,73.4h24.1v-5.4c0-3.9-1.3-7.1-3.8-9.4-2.5-2.4-5.9-3.5-10.1-3.5h-5.2c-2.7,0-5.2.5-7.3,1.6-2.1,1.1-3.8,2.6-4.9,4.6-1.2,2-1.8,4.2-1.8,6.8v8.4c0,2.4.6,4.5,1.8,6.4,1.2,1.8,2.8,3.3,4.9,4.3,2.1,1,4.5,1.5,7.3,1.5h5c2.7,0,5.2-.5,7.3-1.4,2.1-.9,3.8-2.2,4.9-3.9,1.2-1.7,1.8-3.6,1.8-5.8h-8.7c0,1.1-.5,2-1.4,2.6s-2.2,1-3.7,1h-5.1c-1.6,0-2.8-.4-3.7-1.3-.9-.9-1.4-2-1.4-3.5v-3.1ZM247.9,70.1v-1.7c0-.2,0-.3,0-.5,0-1.6.5-2.9,1.4-3.8,1-1.1,2.2-1.6,3.8-1.6h5.3c1.5,0,2.7.5,3.7,1.5.9,1,1.4,2.3,1.4,3.9v2.2h-15.5Z"/>
  <path class="st2" d="M125.6,98.5c-2.3-2-3.6-4.6-3.8-7.8h8.7c0,1,.5,1.7,1.2,2.3.7.6,1.6.9,2.6.9h5.4c1.3,0,2.4-.6,3.3-1.7.8-1.1,1.3-2.6,1.3-4.3v-4.2c-1,1.3-2.1,2.4-3.4,3.2-1.3.8-2.6,1.1-3.8,1.1h-4.3c-3.4,0-6.2-1.1-8.3-3.4-2.1-2.3-3.1-5.3-3.1-9.1v-19.8h8.9v19.9c0,1.4.4,2.6,1.1,3.5s1.7,1.3,2.8,1.3h3.8c1.4,0,2.7-.6,3.9-1.8,1.2-1.2,2-2.8,2.5-4.7v-18.2h8.9v32.2c0,2.7-.6,5.1-1.7,7.1-1.1,2-2.7,3.6-4.7,4.8-2,1.1-4.4,1.7-7,1.7h-5.4c-3.5,0-6.4-1-8.7-3Z"/>
  <path class="st0" d="M201.2,42.5h8.9v16.4c1-1.1,2.1-2,3.6-2.7,1.4-.7,2.8-1,4.1-1h4c3.5,0,6.3,1.1,8.4,3.3,2.1,2.2,3.2,5,3.2,8.6v21.2h-8.9v-20.9c0-1.3-.4-2.4-1.1-3.3-.7-.8-1.6-1.2-2.8-1.2h-4c-1.5,0-2.9.6-4.1,1.7-1.2,1.1-2,2.6-2.4,4.3v19.4h-8.9v-45.7Z"/>
  <path class="st0" d="M278.2,55.6h8.2v3.5c.9-1.2,2.1-2.2,3.5-2.9,1.4-.7,2.8-1.1,4.1-1.1h4.1c2.6,0,4.9.5,6.9,1.6,2,1.1,3.5,2.6,4.6,4.5,1.1,1.9,1.6,4.1,1.6,6.6v7.3c0,2.7-.5,5.1-1.6,7.1-1.1,2.1-2.6,3.7-4.6,4.8-2,1.1-4.2,1.7-6.8,1.7h-4.2c-1.2,0-2.5-.3-3.8-.8-1.3-.6-2.4-1.3-3.3-2.3v15.7h-8.9v-45.6ZM297.2,81.1c1.6,0,2.9-.6,3.9-1.8,1-1.2,1.4-2.8,1.4-4.8v-6c0-1.7-.5-3.1-1.5-4.1-1-1-2.3-1.6-3.9-1.6h-4c-1.3,0-2.5.5-3.6,1.5-1.1,1-2,2.3-2.5,3.9v6.5c.2,1.9.9,3.5,2,4.6,1.1,1.2,2.5,1.8,4.1,1.8h4Z"/>
  <path class="st1" d="M91.4,67.9c0,.2,0,.3,0,.5v-.5h0Z"/>
  <polygon class="st0" points="362.4 122.3 334.3 81.1 314.6 109.2 310.5 106.3 334.3 72.3 366.6 119.5 362.4 122.3"/>
  <polygon class="st0" points="380.7 99.3 336.5 69.3 395.3 29.9 398.1 34 345.5 69.3 383.5 95.2 380.7 99.3"/>
  <path class="st0" d="M334.3,67l-16.6-23.2,4.1-2.9,12.5,17.4c6.8-10,28.5-42.1,28.9-42.7l4.6,1.4-33.3,50Z"/>
  <path class="st2" d="M190.8,71.5v-29h-9.1l-24.3,30.5v6.4h24.4v8.7h9v-8.7h5.7v-8h-5.7ZM182,71.9h-14.4l14.3-18.1h0v18.1Z"/>
</svg>