<?xml version="1.0" encoding="UTF-8" standalone="no"?>
<!-- Created with Inkscape (http://www.inkscape.org/) -->

<svg
   width="164.18201"
   height="409.16406"
   viewBox="0 0 43.439823 108.25799"
   version="1.1"
   id="svg1"
   inkscape:version="1.4.2 (1:1.4.2+202505120737+ebf0e940d0)"
   sodipodi:docname="key4hep_logo8_outline.svg"
   xmlns:inkscape="http://www.inkscape.org/namespaces/inkscape"
   xmlns:sodipodi="http://sodipodi.sourceforge.net/DTD/sodipodi-0.dtd"
   xmlns="http://www.w3.org/2000/svg"
   xmlns:svg="http://www.w3.org/2000/svg">
  <sodipodi:namedview
     id="namedview1"
     pagecolor="#ffffff"
     bordercolor="#000000"
     borderopacity="0.25"
     inkscape:showpageshadow="2"
     inkscape:pageopacity="0.0"
     inkscape:pagecheckerboard="false"
     inkscape:deskcolor="#d1d1d1"
     inkscape:document-units="px"
     inkscape:clip-to-page="true"
     inkscape:zoom="2"
     inkscape:cx="22.25"
     inkscape:cy="205.25"
     inkscape:window-width="1920"
     inkscape:window-height="1128"
     inkscape:window-x="0"
     inkscape:window-y="0"
     inkscape:window-maximized="1"
     inkscape:current-layer="layer1" />
  <defs
     id="defs1" />
  <g
     inkscape:label="Layer 1"
     inkscape:groupmode="layer"
     id="layer1"
     transform="translate(-330.2,-57.679167)">
    <g
       id="g754"
       inkscape:label="Shank"
       style="display:inline;fill:#ffffff;stroke:#000000;stroke-opacity:1;vector-effect:non-scaling-stroke;-inkscape-stroke:hairline;stroke-width:0.26458333;stroke-dasharray:none"
       transform="translate(273.73658,32.223701)">
      <path
         id="path747"
         style="display:inline;vector-effect:non-scaling-stroke;fill:#ffffff;fill-opacity:1;stroke:#000000;stroke-width:0.26458333;stroke-opacity:1;-inkscape-stroke:hairline;stroke-dasharray:none"
         inkscape:label="Shank"
         d="m 76.549016,68.043047 c -0.603947,0 -1.090373,0.577636 -1.090373,1.295528 v 29.872079 c 0.04626,-0.0049 0.09349,-0.0072 0.141077,-0.0072 h 3.2675 c 0.04784,0 0.0951,0.0023 0.141594,0.0072 V 69.338575 c 0,-0.717892 -0.486425,-1.295528 -1.090373,-1.295528 z M 75.59972,99.466969 c -0.04798,0 -0.09522,0.0028 -0.141077,0.0088 V 101.194 c 0.04586,0.006 0.0931,0.009 0.141077,0.009 h 3.2675 c 0.04821,0 0.09549,-0.003 0.141594,-0.009 v -1.717729 c -0.0461,-0.006 -0.09338,-0.0093 -0.141594,-0.0093 z m -0.141077,1.993161 v 28.76207 c 0.04632,-0.005 0.09343,-0.007 0.141077,-0.007 h 3.2675 c 0.04783,0 0.09511,0.003 0.141594,0.008 v -0.39171 c 0,0 8.8e-5,-0.2992 0.344165,-0.2992 h 3.804419 2.680973 6.304008 2.778642 c 0,0 0.373621,-1.1e-4 0.373621,-0.32453 v -1.04438 c 0,-0.32442 -0.373621,-0.32453 -0.373621,-0.32453 0,0 -0.414445,0 -0.414445,-0.36018 v -1.14102 c 0,-0.36017 0.414445,-0.36018 0.414445,-0.36018 h 2.474784 c 0.262681,0 0.787929,-0.2281 1.050582,-0.45631 l 0.02532,-0.0217 c 0.262653,-0.22822 0.500235,-0.66269 0.500227,-0.8909 v -2.83497 c 0,-0.2282 -0.262874,-0.68441 -0.525549,-0.91261 -0.262675,-0.2282 -0.787908,-0.4563 -1.050582,-0.4563 h -5.253426 -6.304008 -1.038696 c 0,0 -0.411345,-3.7e-4 -0.411345,-0.3576 v -0.97875 c 0,-0.35722 -0.411344,-0.3576 -0.411344,-0.3576 0,0 -0.376727,2.5e-4 -0.376721,-0.32712 v -0.16174 c 0,0 5.4e-5,-0.32605 0.374137,-0.32763 0,0 0.413928,1e-5 0.413928,-0.35967 v -0.9741 c 0,-0.35967 -0.413928,-0.35967 -0.413928,-0.35967 h 0.03669 c 0,0 -0.410828,-3e-4 -0.410828,-0.35708 v -2.51665 c 0,-0.35678 0.410828,-0.35708 0.410828,-0.35708 0,0 0.377243,1.9e-4 0.377237,-0.32763 v -1.03818 c 0,-0.32782 0.377238,-0.32763 0.377238,-0.32763 h 1.335319 5.889563 c 0,0 0.414445,-1e-5 0.414445,-0.36018 v -2.01797 c 0,-0.36017 -0.414445,-0.36018 -0.414445,-0.36018 h -1.120345 c -0.414591,0 -0.414445,0.36018 -0.414445,0.36018 v 0.2279 c 0,0 -2e-4,0.45682 -0.525549,0.45682 h -0.82889 c 0,0 -0.525549,-4.1e-4 -0.525549,-0.45682 v -0.94827 c 0,-0.45639 0.525549,-0.4563 0.525549,-0.4563 h 0.899687 c 0,0 0.413411,-2.2e-4 0.413411,-0.35967 v -1.29914 c 0,-0.35946 -0.413411,-0.35915 -0.413411,-0.35915 h -0.899687 c 0,0 -0.525549,-4.2e-4 -0.525549,-0.45682 v -0.94826 c 0,-0.4564 0.525549,-0.45631 0.525549,-0.45631 h 0.82889 c 0,0 0.525549,-9e-5 0.525549,0.45631 v 0.22789 c 0,0.36018 0.414445,0.36018 0.414445,0.36018 h 1.120345 c 0,0 0.414445,-10e-6 0.414445,-0.36018 v -0.6842 h 0.47284 l 1.78077,4.12068 v 1.62006 c 0,0 -0.414962,1e-5 -0.414962,0.36018 v 0.97307 c 0,0 3.79e-4,0.36018 0.414962,0.36018 h 2.322855 c 0,0 0.414445,-1e-5 0.414445,-0.36018 v -0.97307 c 0,-0.36017 -0.414445,-0.36018 -0.414445,-0.36018 v -1.62006 l 1.465027,-4.12068 h 0.5302 c 0.257928,0 0.257866,-0.22376 0.257866,-0.22376 v -1.24592 c 0,-0.22408 -0.257866,-0.22427 -0.257866,-0.22427 H 96.34057 c -0.257925,0 -0.257866,0.22427 -0.257866,0.22427 v 1.24592 c 0,0.22334 0.256832,0.22376 0.256832,0.22376 0,0 0.15986,-2.4e-4 0.07028,0.28422 l -0.545186,1.73168 c -0.04476,0.14222 -0.0894,0 -0.0894,0 l -0.545703,-1.73168 c -0.08714,-0.27646 0.0708,-0.28422 0.0708,-0.28422 0,0 0.256832,-4.2e-4 0.256832,-0.22376 v -1.24592 c 0,0 6e-5,-0.22427 -0.257866,-0.22427 h -2.894397 -6.304008 -2.943489 -3.794084 c -0.344082,-0.009 -0.3545,-0.30748 -0.3545,-0.30748 v -0.38085 c -0.0465,0.005 -0.09376,0.007 -0.141594,0.007 h -3.2675 c -0.04759,0 -0.09482,-0.002 -0.141077,-0.007 z m 3.550171,2.38228 c 0,0 0.414452,3e-5 0.414445,0.36019 v 5.02036 c 0,0.36018 -0.414445,0.36019 -0.414445,0.36019 z m 2.778642,0 h 1.152901 c 0.03117,0.001 0.151007,0.0134 0.077,0.10697 l -1.475879,1.865 c -0.08428,0.10653 -0.168465,0.10692 -0.168465,0 v -1.61178 c 0,-0.36016 0.414445,-0.36019 0.414445,-0.36019 z m 3.578076,0 h 0.735355 c 0.0017,0 0.52555,6.3e-4 0.52555,0.45631 v 4.82761 c 0,0.45641 -0.52555,0.45682 -0.52555,0.45682 h -0.735355 l -2.679423,-2.87063 z m -3.939811,3.68867 c 0.03168,5e-5 0.07362,0.0271 0.115755,0.0806 l 1.391646,1.76527 c 0.08428,0.10693 0.162394,0.20619 0,0.20619 0,0 -0.247013,0 -0.247013,0.36018 v 0.97307 c 0,0.21251 -0.144173,0.29966 -0.262516,0.33538 -0.118344,-0.0357 -0.262517,-0.12287 -0.262517,-0.33538 v -0.97307 c 0,-0.36018 -0.37362,-0.36018 -0.37362,-0.36018 -0.414562,-1e-5 -0.414445,-0.36019 -0.414445,-0.36019 v -1.61127 c 0,-0.0537 0.02103,-0.0807 0.05271,-0.0806 z m -2.416907,3.7455 h 2.012797 c 0,0 0.24667,-8e-5 0,0.35657 l -2.012797,2.91042 z m 2.591573,2.94866 c 0.02909,-0.002 0.05064,0.0199 0.05064,0.0806 v 1.75596 c 0,0 8.2e-5,0.13901 -0.15968,0.13901 h -1.170472 c -0.123003,0 -0.202869,-0.058 -0.122989,-0.16485 l 1.293461,-1.73012 c 0.03342,-0.0447 0.07607,-0.0782 0.109037,-0.0806 z m -2.591573,3.64629 0.0155,0.0227 h 2.249475 c 0,0 0.377238,2.6e-4 0.377238,0.32763 v 0.16174 c 0,0.32736 -0.377238,0.32712 -0.377238,0.32712 -0.411196,0 -0.410828,0.3576 -0.410828,0.3576 v 0.97875 c 0,0.35723 -0.411344,0.3576 -0.411344,0.3576 h -1.442806 z m 3.414779,2.55695 c 0.117607,0.0349 0.262516,0.12089 0.262516,0.3328 v 1.33687 c 0,0 0.790649,-0.003 0.790649,0.68729 l -0.0026,0.81546 c 0,0 1.93e-4,0.35867 -0.412894,0.35863 h -1.275375 c -0.413088,0 -0.412894,-0.35863 -0.412894,-0.35863 v -0.81804 c 0.04567,-0.41843 0.376255,-0.68471 0.788065,-0.68471 v -0.35761 -0.97926 c 0,-0.21191 0.144909,-0.29795 0.262517,-0.3328 z m -3.414779,1.66967 c 0,0 0.414445,10e-6 0.414445,0.36018 v 5.04517 c 0,0.33637 -0.414445,0.33538 -0.414445,0.33538 z m 6.829557,0 h 0.110588 c 0,0 0.414445,8.1e-4 0.414445,0.36018 v 5.02037 c 0,0.36214 -0.414445,0.36018 -0.414445,0.36018 h -0.110588 c 0,0 -0.414962,0.006 -0.414962,-0.36018 v -5.02037 c 0,-0.35817 0.414962,-0.36018 0.414962,-0.36018 z m 2.88923,0 h 1.050581 c 0,0 0.414962,0.005 0.414962,0.36018 v 0.68471 h 1.949235 v -1.04489 c 0,0 0.414445,-3e-5 0.414445,0.36018 v 5.02037 c 0,0.36021 -0.414445,0.36018 -0.414445,0.36018 v -0.68885 c 0,-0.35614 -0.409794,-0.35605 -0.409794,-0.35605 h -1.129647 c -0.409933,0 -0.409794,0.35605 -0.409794,0.35605 v 0.32867 c 0,0.36103 -0.414962,0.36018 -0.414962,0.36018 h -1.050581 c 0,0 -0.414445,0.002 -0.414445,-0.36018 v -1.14102 c 0,-0.36021 0.414445,-0.36018 0.414445,-0.36018 h 1.011307 c 0,0 0.412895,2.4e-4 0.412895,-0.35864 v -1.30069 c 0,0 1.92e-4,-0.35864 -0.412895,-0.35864 h -1.011307 c 0,0 -0.414445,0.002 -0.414445,-0.36018 v -1.14102 c 0,-0.35821 0.414445,-0.36018 0.414445,-0.36018 z m 6.304007,0 h 1.203028 c 0.262674,0 0.262357,2e-4 0.525032,0.22841 0.262675,0.22818 0.263019,0.22809 0.263033,0.4563 v 0.709 c 0,0.2282 -0.263033,0.4563 -0.263033,0.4563 -0.262675,0.22819 -0.262365,0.22842 -0.525032,0.22841 h -1.203028 c -0.262674,0 -0.525032,-0.22861 -0.525032,-0.45682 v -1.1653 c 0,-0.22819 0.262358,-0.4563 0.525032,-0.4563 z m -13.245703,3.87935 h 1.275375 c 0,0 0.412894,2.7e-4 0.412894,0.35915 v 1.16685 c 0.0058,0.33494 -0.386539,0.33538 -0.386539,0.33538 h -1.328601 c 0,0 -0.383223,-5.4e-4 -0.386023,-0.33538 v -1.16685 c 0,0 -1.94e-4,-0.35915 0.412894,-0.35915 z m -6.186185,4.50101 c -0.04804,0 -0.09516,0.003 -0.141077,0.009 v 1.71824 c 0.04591,0.006 0.09304,0.009 0.141077,0.009 h 3.2675 c 0.04821,0 0.0955,-0.003 0.141594,-0.009 v -1.71773 c -0.04609,-0.006 -0.09339,-0.009 -0.141594,-0.009 z m -0.140043,1.99265 c 0.02338,0.69295 0.500419,1.2423 1.089339,1.2423 h 1.369425 c 0.588937,0 1.065981,-0.54932 1.089339,-1.2423 -0.0462,0.005 -0.09304,0.008 -0.14056,0.008 h -3.2675 c -0.04734,0 -0.09401,-0.003 -0.140043,-0.008 z" />
      <path
         id="path748"
         style="display:inline;fill:#ffffff;fill-opacity:1;stroke:#000000;stroke-width:0.26458333;stroke-dasharray:none;stroke-opacity:1;vector-effect:non-scaling-stroke;-inkscape-stroke:hairline"
         inkscape:label="Accent1"
         d="m 75.599647,99.466839 c -0.538818,0 -0.957048,0.390538 -0.957048,0.867131 0,0.4766 0.41823,0.8692 0.957048,0.8692 h 3.267501 c 0.538819,0 0.959114,-0.3926 0.959114,-0.8692 0,-0.476593 -0.420295,-0.867131 -0.959114,-0.867131 z" />
      <path
         id="path749"
         style="display:inline;fill:#ffffff;fill-opacity:1;stroke:#000000;stroke-width:0.26458333;stroke-dasharray:none;stroke-opacity:1;vector-effect:non-scaling-stroke;-inkscape-stroke:hairline"
         inkscape:label="Accent2"
         d="m 75.599647,130.47838 c -0.538818,0 -0.957048,0.39054 -0.957048,0.86713 0,0.4766 0.41823,0.8692 0.957048,0.8692 h 3.267501 c 0.538819,0 0.959114,-0.3926 0.959114,-0.8692 0,-0.47659 -0.420295,-0.86713 -0.959114,-0.86713 z" />
    </g>
    <g
       id="g842"
       inkscape:label="Calos"
       style="display:inline;fill:#ffffff;stroke:#000000;stroke-opacity:1;vector-effect:non-scaling-stroke;-inkscape-stroke:hairline;stroke-width:0.26458333;stroke-dasharray:none"
       transform="translate(273.73658,32.223701)">
      <path
         id="path789"
         style="display:inline;fill:#ffffff;fill-opacity:1;fill-rule:nonzero;stroke:#000000;stroke-width:0.26458333;stroke-linecap:round;stroke-dasharray:none;stroke-opacity:1;vector-effect:non-scaling-stroke;-inkscape-stroke:hairline"
         inkscape:label="CaloOuter"
         d="m 78.953107,26.335518 -0.151148,1.726773 a 18.191261,18.191261 0 0 1 1.573624,0.206876 l 0.304701,-1.728775 a 19.611893,19.611893 0 0 0 -1.727177,-0.204874 z" />
      <path
         id="path790"
         style="display:inline;fill:#ffffff;fill-opacity:1;fill-rule:nonzero;stroke:#000000;stroke-width:0.26458333;stroke-linecap:round;stroke-dasharray:none;stroke-opacity:1;vector-effect:non-scaling-stroke;-inkscape-stroke:hairline"
         inkscape:label="CaloOuter"
         d="m 80.869921,25.465917 -0.494338,2.80325 a 18.191261,18.191261 0 0 1 1.54917,0.343594 l 0.736894,-2.749532 a 21.037692,21.037692 0 0 0 -1.791726,-0.397312 z" />
      <path
         id="path791"
         style="display:inline;fill:#ffffff;fill-opacity:1;fill-rule:nonzero;stroke:#000000;stroke-width:0.26458333;stroke-linecap:round;stroke-dasharray:none;stroke-opacity:1;vector-effect:non-scaling-stroke;-inkscape-stroke:hairline"
         inkscape:label="CaloOuter"
         d="m 82.409874,26.803392 -0.484718,1.809369 a 18.191261,18.191261 0 0 1 1.513481,0.477099 l 0.640676,-1.760057 a 20.064575,20.064575 0 0 0 -1.669439,-0.526411 z" />
      <path
         id="path792"
         style="display:inline;fill:#ffffff;fill-opacity:1;fill-rule:nonzero;stroke:#000000;stroke-width:0.26458333;stroke-linecap:round;stroke-dasharray:none;stroke-opacity:1;vector-effect:non-scaling-stroke;-inkscape-stroke:hairline"
         inkscape:label="CaloOuter"
         d="m 83.929771,27.740351 -0.491134,1.349509 a 18.191261,18.191261 0 0 1 1.466179,0.6074 l 0.606997,-1.301802 a 19.627664,19.627664 0 0 0 -1.582042,-0.655107 z" />
      <path
         id="path793"
         style="display:inline;fill:#ffffff;fill-opacity:1;fill-rule:nonzero;stroke:#000000;stroke-width:0.26458333;stroke-linecap:round;stroke-dasharray:none;stroke-opacity:1;vector-effect:non-scaling-stroke;-inkscape-stroke:hairline"
         inkscape:label="CaloOuter"
         d="m 86.063888,27.211535 -1.159072,2.485725 a 18.191261,18.191261 0 0 1 1.407238,0.732884 l 1.371558,-2.375471 a 20.934011,20.934011 0 0 0 -1.619724,-0.843138 z" />
      <path
         id="path794"
         style="display:inline;fill:#ffffff;fill-opacity:1;fill-rule:nonzero;stroke:#000000;stroke-width:0.26458333;stroke-linecap:round;stroke-dasharray:none;stroke-opacity:1;vector-effect:non-scaling-stroke;-inkscape-stroke:hairline"
         inkscape:label="CaloOuter"
         d="m 88.8074,29.630709 -1.15666,1.651797 a 18.191261,18.191261 0 0 1 1.258899,0.966231 l 1.296581,-1.545158 a 20.208262,20.208262 0 0 0 -1.39882,-1.07287 z" />
      <path
         id="path795"
         style="display:inline;fill:#ffffff;fill-opacity:1;fill-rule:nonzero;stroke:#000000;stroke-width:0.26458333;stroke-linecap:round;stroke-dasharray:none;stroke-opacity:1;vector-effect:non-scaling-stroke;-inkscape-stroke:hairline"
         inkscape:label="CaloOuter"
         d="M 92.250131,31.150606 90.07993,33.3208 a 18.191261,18.191261 0 0 1 1.072071,1.170299 l 2.351412,-1.972946 a 21.260598,21.260598 0 0 0 -1.253282,-1.367547 z" />
      <path
         id="path796"
         style="display:inline;fill:#ffffff;fill-opacity:1;fill-rule:nonzero;stroke:#000000;stroke-width:0.26458333;stroke-linecap:round;stroke-dasharray:none;stroke-opacity:1;vector-effect:non-scaling-stroke;-inkscape-stroke:hairline"
         inkscape:label="CaloOuter"
         d="m 92.363589,33.474353 -1.211588,1.016746 a 18.191261,18.191261 0 0 1 0.966223,1.258899 l 1.295387,-0.906888 a 19.772813,19.772813 0 0 0 -1.050022,-1.368757 z" />
      <path
         id="path797"
         style="display:inline;fill:#ffffff;fill-opacity:1;fill-rule:nonzero;stroke:#000000;stroke-width:0.26458333;stroke-linecap:round;stroke-dasharray:none;stroke-opacity:1;vector-effect:non-scaling-stroke;-inkscape-stroke:hairline"
         inkscape:label="CaloOuter"
         d="m 95.583405,33.323608 -3.465181,2.42639 a 18.191261,18.191261 0 0 1 0.852766,1.338686 l 3.663631,-2.115273 a 22.421796,22.421796 0 0 0 0,-4.03e-4 22.421796,22.421796 0 0 0 -1.051216,-1.6494 z" />
      <path
         id="path798"
         style="display:inline;fill:#ffffff;fill-opacity:1;fill-rule:nonzero;stroke:#000000;stroke-width:0.26458333;stroke-linecap:round;stroke-dasharray:none;stroke-opacity:1;vector-effect:non-scaling-stroke;-inkscape-stroke:hairline"
         inkscape:label="CaloOuter"
         d="m 95.503215,35.626516 -2.532225,1.462168 a 18.191261,18.191261 0 0 1 0.732488,1.407238 l 2.650098,-1.235647 a 21.115447,21.115447 0 0 0 -0.850361,-1.633759 z" />
      <path
         id="path799"
         style="display:inline;fill:#ffffff;fill-opacity:1;fill-rule:nonzero;stroke:#000000;stroke-width:0.26458333;stroke-linecap:round;stroke-dasharray:none;stroke-opacity:1;vector-effect:non-scaling-stroke;-inkscape-stroke:hairline"
         inkscape:label="CaloOuter"
         d="m 95.038149,37.873688 -1.334671,0.622234 a 18.191261,18.191261 0 0 1 0.6074,1.466179 l 1.383984,-0.503563 a 19.663951,19.663951 0 0 0 -0.656713,-1.58485 z" />
      <path
         id="path800"
         style="display:inline;fill:#ffffff;fill-opacity:1;fill-rule:nonzero;stroke:#000000;stroke-width:0.26458333;stroke-linecap:round;stroke-dasharray:none;stroke-opacity:1;vector-effect:non-scaling-stroke;-inkscape-stroke:hairline"
         inkscape:label="CaloOuter"
         d="m 99.275102,38.15554 -4.964224,1.806956 a 18.191261,18.191261 0 0 1 0.477099,1.513086 l 5.102941,-1.367151 A 23.474131,23.474131 0 0 0 99.275102,38.15554 Z" />
      <path
         id="path801"
         style="display:inline;fill:#ffffff;fill-opacity:1;fill-rule:nonzero;stroke:#000000;stroke-width:0.26458333;stroke-linecap:round;stroke-dasharray:none;stroke-opacity:1;vector-effect:non-scaling-stroke;-inkscape-stroke:hairline"
         inkscape:label="CaloOuter"
         d="m 97.717918,40.690973 -2.929941,0.785012 a 18.191261,18.191261 0 0 1 0.343583,1.549565 l 2.986882,-0.526814 a 21.22431,21.22431 0 0 0 -0.400524,-1.807763 z" />
      <path
         id="path802"
         style="display:inline;fill:#ffffff;fill-opacity:1;fill-rule:nonzero;stroke:#000000;stroke-width:0.26458333;stroke-linecap:round;stroke-dasharray:none;stroke-opacity:1;vector-effect:non-scaling-stroke;-inkscape-stroke:hairline"
         inkscape:label="CaloOuter"
         d="m 96.617786,42.76335 -1.486226,0.2622 a 18.191261,18.191261 0 0 1 0.207279,1.573221 l 1.503062,-0.131496 A 19.700238,19.700238 0 0 0 96.617786,42.76335 Z" />
      <path
         id="path803"
         style="display:inline;fill:#ffffff;fill-opacity:1;fill-rule:nonzero;stroke:#000000;stroke-width:0.26458333;stroke-linecap:round;stroke-dasharray:none;stroke-opacity:1;vector-effect:non-scaling-stroke;-inkscape-stroke:hairline"
         inkscape:label="CaloOuter"
         d="m 97.534294,44.406729 -2.195455,0.192042 a 18.191261,18.191261 0 0 1 0.06897,1.585253 h 2.20388 a 20.39504,20.39504 0 0 0 -0.07735,-1.777295 z" />
      <path
         id="path804"
         style="display:inline;fill:#ffffff;fill-opacity:1;fill-rule:nonzero;stroke:#000000;stroke-width:0.26458333;stroke-linecap:round;stroke-dasharray:none;stroke-opacity:1;vector-effect:non-scaling-stroke;-inkscape-stroke:hairline"
         inkscape:label="CaloOuter"
         d="m 95.338839,47.769673 a 18.191261,18.191261 0 0 1 -0.207279,1.573229 l 1.311019,0.23133 a 19.522631,19.522631 0 0 0 0.222517,-1.688688 z" />
      <path
         id="path805"
         style="display:inline;fill:#ffffff;fill-opacity:1;fill-rule:nonzero;stroke:#000000;stroke-width:0.26458333;stroke-linecap:round;stroke-dasharray:none;stroke-opacity:1;vector-effect:non-scaling-stroke;-inkscape-stroke:hairline"
         inkscape:label="CaloOuter"
         d="m 94.787977,50.892467 a 18.191261,18.191261 0 0 1 -0.477099,1.513489 l 1.690686,0.615414 a 19.990538,19.990538 0 0 0 0.52441,-1.663434 z" />
      <path
         id="path806"
         style="display:inline;fill:#ffffff;fill-opacity:1;fill-rule:nonzero;stroke:#000000;stroke-width:0.26458333;stroke-linecap:round;stroke-dasharray:none;stroke-opacity:1;vector-effect:non-scaling-stroke;-inkscape-stroke:hairline"
         inkscape:label="CaloOuter"
         d="m 94.310878,52.405956 a 18.191261,18.191261 0 0 1 -0.6074,1.466171 l 2.369455,1.10495 a 20.805586,20.805586 0 0 0 0.694798,-1.677066 z" />
      <path
         id="path807"
         style="display:inline;fill:#ffffff;fill-opacity:1;fill-rule:nonzero;stroke:#000000;stroke-width:0.26458333;stroke-linecap:round;stroke-dasharray:none;stroke-opacity:1;vector-effect:non-scaling-stroke;-inkscape-stroke:hairline"
         inkscape:label="CaloOuter"
         d="m 93.703478,53.871731 a 18.191261,18.191261 0 0 1 -0.732488,1.408037 l 1.935252,1.117372 a 20.425987,20.425987 0 0 0 0.822694,-1.580436 20.425987,20.425987 0 0 0 0,-4.03e-4 z" />
      <path
         id="path808"
         style="display:inline;fill:#ffffff;fill-opacity:1;fill-rule:nonzero;stroke:#000000;stroke-width:0.26458333;stroke-linecap:round;stroke-dasharray:none;stroke-opacity:1;vector-effect:non-scaling-stroke;-inkscape-stroke:hairline"
         inkscape:label="CaloOuter"
         d="m 92.970586,55.279768 a 18.191261,18.191261 0 0 1 -0.852362,1.338686 l 3.078692,2.155763 a 21.950058,21.950058 0 0 0 1.029167,-1.614921 z" />
      <path
         id="path809"
         style="display:inline;fill:#ffffff;fill-opacity:1;fill-rule:nonzero;stroke:#000000;stroke-width:0.26458333;stroke-linecap:round;stroke-dasharray:none;stroke-opacity:1;vector-effect:non-scaling-stroke;-inkscape-stroke:hairline"
         inkscape:label="CaloOuter"
         d="m 92.117828,56.618454 a 18.191261,18.191261 0 0 1 -0.965827,1.258899 l 1.924029,1.614518 a 20.702949,20.702949 0 0 0 1.099333,-1.432903 z" />
      <path
         id="path810"
         style="display:inline;fill:#ffffff;fill-opacity:1;fill-rule:nonzero;stroke:#000000;stroke-width:0.26458333;stroke-linecap:round;stroke-dasharray:none;stroke-opacity:1;vector-effect:non-scaling-stroke;-inkscape-stroke:hairline"
         inkscape:label="CaloOuter"
         d="m 88.909639,60.119311 a 18.191261,18.191261 0 0 1 -1.258899,0.966232 l 0.793026,1.132608 a 19.573951,19.573951 0 0 0 1.354723,-1.039594 z" />
      <path
         id="path811"
         style="display:inline;fill:#ffffff;fill-opacity:1;fill-rule:nonzero;stroke:#000000;stroke-width:0.26458333;stroke-linecap:round;stroke-dasharray:none;stroke-opacity:1;vector-effect:non-scaling-stroke;-inkscape-stroke:hairline"
         inkscape:label="CaloOuter"
         d="M 87.65074,61.085543 A 18.191261,18.191261 0 0 1 86.312458,61.9383 l 2.641279,4.574937 a 23.474131,23.474131 0 0 0 1.727177,-1.100132 z" />
      <path
         id="path812"
         style="display:inline;fill:#ffffff;fill-opacity:1;fill-rule:nonzero;stroke:#000000;stroke-width:0.26458333;stroke-linecap:round;stroke-dasharray:none;stroke-opacity:1;vector-effect:non-scaling-stroke;-inkscape-stroke:hairline"
         inkscape:label="CaloOuter"
         d="m 80.375583,64.098881 a 18.191261,18.191261 0 0 1 -1.57322,0.207272 l 0.118671,1.358733 a 19.555089,19.555089 0 0 0 1.691497,-0.222517 z" />
      <path
         id="path813"
         style="display:inline;fill:#ffffff;fill-opacity:1;fill-rule:nonzero;stroke:#000000;stroke-width:0.26458333;stroke-linecap:round;stroke-dasharray:none;stroke-opacity:1;vector-effect:non-scaling-stroke;-inkscape-stroke:hairline"
         inkscape:label="CaloOuter"
         d="m 78.802363,64.306153 a 18.191261,18.191261 0 0 1 -1.585649,0.06936 v 2.089615 a 20.280837,20.280837 0 0 0 1.767667,-0.07735 z" />
      <path
         id="path814"
         style="display:inline;fill:#ffffff;fill-opacity:1;fill-rule:nonzero;stroke:#000000;stroke-width:0.26458333;stroke-linecap:round;stroke-dasharray:none;stroke-opacity:1;vector-effect:non-scaling-stroke;-inkscape-stroke:hairline"
         inkscape:label="CaloOuter"
         d="m 75.63146,64.306153 -0.144328,1.647801 a 19.845388,19.845388 0 0 0 1.729582,0.0758 v -1.65421 a 18.191261,18.191261 0 0 1 -1.585254,-0.06936 z" />
      <path
         id="path815"
         style="display:inline;fill:#ffffff;fill-opacity:1;fill-rule:nonzero;stroke:#000000;stroke-width:0.26458333;stroke-linecap:round;stroke-dasharray:none;stroke-opacity:1;vector-effect:non-scaling-stroke;-inkscape-stroke:hairline"
         inkscape:label="CaloOuter"
         d="m 74.057836,64.099277 -0.488721,2.772388 a 21.006585,21.006585 0 0 0 1.816576,0.239352 l 0.245366,-2.804864 a 18.191261,18.191261 0 0 1 -1.573221,-0.206876 z" />
      <path
         id="path816"
         style="display:inline;fill:#ffffff;fill-opacity:1;fill-rule:nonzero;stroke:#000000;stroke-width:0.26458333;stroke-linecap:round;stroke-dasharray:none;stroke-opacity:1;vector-effect:non-scaling-stroke;-inkscape-stroke:hairline"
         inkscape:label="CaloOuter"
         d="m 72.508271,63.755691 -0.409345,1.527516 a 19.772813,19.772813 0 0 0 1.684281,0.373262 l 0.274629,-1.557588 a 18.191261,18.191261 0 0 1 -1.549565,-0.34319 z" />
      <path
         id="path817"
         style="display:inline;fill:#ffffff;fill-opacity:1;fill-rule:nonzero;stroke:#000000;stroke-width:0.26458333;stroke-linecap:round;stroke-dasharray:none;stroke-opacity:1;vector-effect:non-scaling-stroke;-inkscape-stroke:hairline"
         inkscape:label="CaloOuter"
         d="m 70.994782,63.278189 -0.466276,1.281755 a 19.555089,19.555089 0 0 0 1.626947,0.513175 l 0.353214,-1.317428 a 18.191261,18.191261 0 0 1 -1.513481,-0.477502 z" />
      <path
         id="path818"
         style="display:inline;fill:#ffffff;fill-opacity:1;fill-rule:nonzero;stroke:#000000;stroke-width:0.26458333;stroke-linecap:round;stroke-dasharray:none;stroke-opacity:1;vector-effect:non-scaling-stroke;-inkscape-stroke:hairline"
         inkscape:label="CaloOuter"
         d="m 68.120969,61.9383 -1.768877,3.063861 a 21.729313,21.729313 0 0 0 1.681472,0.875614 l 1.495443,-3.206583 A 18.191261,18.191261 0 0 1 68.120969,61.9383 Z" />
      <path
         id="path819"
         style="display:inline;fill:#ffffff;fill-opacity:1;fill-rule:nonzero;stroke:#000000;stroke-width:0.26458333;stroke-linecap:round;stroke-dasharray:none;stroke-opacity:1;vector-effect:non-scaling-stroke;-inkscape-stroke:hairline"
         inkscape:label="CaloOuter"
         d="m 66.782687,61.085543 -1.739606,2.484522 a 21.22431,21.22431 0 0 0 1.561195,0.995085 l 1.516693,-2.62685 a 18.191261,18.191261 0 0 1 -1.338282,-0.852757 z" />
      <path
         id="path820"
         style="display:inline;fill:#ffffff;fill-opacity:1;fill-rule:nonzero;stroke:#000000;stroke-width:0.26458333;stroke-linecap:round;stroke-dasharray:none;stroke-opacity:1;vector-effect:non-scaling-stroke;-inkscape-stroke:hairline"
         inkscape:label="CaloOuter"
         d="m 65.523788,60.119715 -1.250086,1.48943 a 20.135688,20.135688 0 0 0 1.393615,1.069262 l 1.11537,-1.592864 a 18.191261,18.191261 0 0 1 -1.258899,-0.965828 z" />
      <path
         id="path821"
         style="display:inline;fill:#ffffff;fill-opacity:1;fill-rule:nonzero;stroke:#000000;stroke-width:0.26458333;stroke-linecap:round;stroke-dasharray:none;stroke-opacity:1;vector-effect:non-scaling-stroke;-inkscape-stroke:hairline"
         inkscape:label="CaloOuter"
         d="m 64.353489,59.047249 -1.195552,1.195552 a 19.881858,19.881858 0 0 0 1.278947,1.171897 l 1.086904,-1.294983 a 18.191261,18.191261 0 0 1 -1.170299,-1.072466 z" />
      <path
         id="path822"
         style="display:inline;fill:#ffffff;fill-opacity:1;fill-rule:nonzero;stroke:#000000;stroke-width:0.26458333;stroke-linecap:round;stroke-dasharray:none;stroke-opacity:1;vector-effect:non-scaling-stroke;-inkscape-stroke:hairline"
         inkscape:label="CaloOuter"
         d="m 63.281023,57.87695 -2.159774,1.812573 a 21.010859,21.010859 0 0 0 1.238448,1.351518 l 1.993792,-1.993792 A 18.191261,18.191261 0 0 1 63.281023,57.87695 Z" />
      <path
         id="path823"
         style="display:inline;fill:#ffffff;fill-opacity:1;fill-rule:nonzero;stroke:#000000;stroke-width:0.26458333;stroke-linecap:round;stroke-dasharray:none;stroke-opacity:1;vector-effect:non-scaling-stroke;-inkscape-stroke:hairline"
         inkscape:label="CaloOuter"
         d="m 62.315195,56.618454 -1.786512,1.250877 a 20.372274,20.372274 0 0 0 1.082094,1.410047 l 1.670642,-1.402025 a 18.191261,18.191261 0 0 1 -0.966224,-1.258899 z" />
      <path
         id="path824"
         style="display:inline;fill:#ffffff;fill-opacity:1;fill-rule:nonzero;stroke:#000000;stroke-width:0.26458333;stroke-linecap:round;stroke-dasharray:none;stroke-opacity:1;vector-effect:non-scaling-stroke;-inkscape-stroke:hairline"
         inkscape:label="CaloOuter"
         d="m 61.46243,55.279768 -1.286162,0.742512 a 19.676586,19.676586 0 0 0 0.922125,1.447737 l 1.216802,-0.851966 A 18.191261,18.191261 0 0 1 61.46243,55.279768 Z" />
      <path
         id="path825"
         style="display:inline;fill:#ffffff;fill-opacity:1;fill-rule:nonzero;stroke:#000000;stroke-width:0.26458333;stroke-linecap:round;stroke-dasharray:none;stroke-opacity:1;vector-effect:non-scaling-stroke;-inkscape-stroke:hairline"
         inkscape:label="CaloOuter"
         d="m 60.729546,53.872127 -2.183026,1.017948 a 20.600314,20.600314 0 0 0 0.82991,1.594067 l 2.086,-1.204374 a 18.191261,18.191261 0 0 1 -0.732884,-1.407641 z" />
      <path
         id="path826"
         style="display:inline;fill:#ffffff;fill-opacity:1;fill-rule:nonzero;stroke:#000000;stroke-width:0.26458333;stroke-linecap:round;stroke-dasharray:none;stroke-opacity:1;vector-effect:non-scaling-stroke;-inkscape-stroke:hairline"
         inkscape:label="CaloOuter"
         d="m 60.122549,52.405956 -1.395616,0.507969 a 19.676586,19.676586 0 0 0 0.656712,1.586053 l 1.346297,-0.627851 a 18.191261,18.191261 0 0 1 -0.607393,-1.466171 z" />
      <path
         id="path827"
         style="display:inline;fill:#ffffff;fill-opacity:1;fill-rule:nonzero;stroke:#000000;stroke-width:0.26458333;stroke-linecap:round;stroke-dasharray:none;stroke-opacity:1;vector-effect:non-scaling-stroke;-inkscape-stroke:hairline"
         inkscape:label="CaloOuter"
         d="m 59.64545,50.892467 -3.1697,0.849158 a 21.472722,21.472722 0 0 0 0.563294,1.786512 l 3.083505,-1.122181 A 18.191261,18.191261 0 0 1 59.64545,50.892467 Z" />
      <path
         id="path828"
         style="display:inline;fill:#ffffff;fill-opacity:1;fill-rule:nonzero;stroke:#000000;stroke-width:0.26458333;stroke-linecap:round;stroke-dasharray:none;stroke-opacity:1;vector-effect:non-scaling-stroke;-inkscape-stroke:hairline"
         inkscape:label="CaloOuter"
         d="m 59.094577,47.769673 -1.548363,0.135515 a 19.745512,19.745512 0 0 0 0.224915,1.707937 l 1.530728,-0.269828 a 18.191261,18.191261 0 0 1 -0.20728,-1.573624 z" />
      <path
         id="path829"
         style="display:inline;fill:#ffffff;fill-opacity:1;fill-rule:nonzero;stroke:#000000;stroke-width:0.26458333;stroke-linecap:round;stroke-dasharray:none;stroke-opacity:1;vector-effect:non-scaling-stroke;-inkscape-stroke:hairline"
         inkscape:label="CaloOuter"
         d="m 57.518952,44.460859 a 19.772813,19.772813 0 0 0 -0.07495,1.723165 h 1.581243 a 18.191261,18.191261 0 0 1 0.06936,-1.585253 z" />
      <path
         id="path830"
         style="display:inline;fill:#ffffff;fill-opacity:1;fill-rule:nonzero;stroke:#000000;stroke-width:0.26458333;stroke-linecap:round;stroke-dasharray:none;stroke-opacity:1;vector-effect:non-scaling-stroke;-inkscape-stroke:hairline"
         inkscape:label="CaloOuter"
         d="m 57.504118,40.902264 a 20.407843,20.407843 0 0 0 -0.385287,1.738 l 2.183026,0.384883 a 18.191261,18.191261 0 0 1 0.343593,-1.549162 z" />
      <path
         id="path831"
         style="display:inline;fill:#ffffff;fill-opacity:1;fill-rule:nonzero;stroke:#000000;stroke-width:0.26458333;stroke-linecap:round;stroke-dasharray:none;stroke-opacity:1;vector-effect:non-scaling-stroke;-inkscape-stroke:hairline"
         inkscape:label="CaloOuter"
         d="m 60.218768,36.370223 a 19.627664,19.627664 0 0 0 -0.790621,1.519098 l 1.301795,0.606997 a 18.191261,18.191261 0 0 1 0.732891,-1.408038 z" />
      <path
         id="path832"
         style="display:inline;fill:#ffffff;fill-opacity:1;fill-rule:nonzero;stroke:#000000;stroke-width:0.26458333;stroke-linecap:round;stroke-dasharray:none;stroke-opacity:1;vector-effect:non-scaling-stroke;-inkscape-stroke:hairline"
         inkscape:label="CaloOuter"
         d="m 61.257563,35.009495 a 19.482515,19.482515 0 0 0 -0.913304,1.433299 l 1.118171,0.645486 a 18.191261,18.191261 0 0 1 0.852765,-1.338282 z" />
      <path
         id="path833"
         style="display:inline;fill:#ffffff;fill-opacity:1;fill-rule:nonzero;stroke:#000000;stroke-width:0.26458333;stroke-linecap:round;stroke-dasharray:none;stroke-opacity:1;vector-effect:non-scaling-stroke;-inkscape-stroke:hairline"
         inkscape:label="CaloOuter"
         d="m 62.097496,33.497612 a 19.736526,19.736526 0 0 0 -1.048012,1.366345 l 1.265711,0.886041 a 18.191261,18.191261 0 0 1 0.966224,-1.258899 z" />
      <path
         id="path834"
         style="display:inline;fill:#ffffff;fill-opacity:1;fill-rule:nonzero;stroke:#000000;stroke-width:0.26458333;stroke-linecap:round;stroke-dasharray:none;stroke-opacity:1;vector-effect:non-scaling-stroke;-inkscape-stroke:hairline"
         inkscape:label="CaloOuter"
         d="m 63.145508,32.112819 a 19.89982,19.89982 0 0 0 -1.172704,1.279746 l 1.308615,1.09813 a 18.191261,18.191261 0 0 1 1.07207,-1.169895 z" />
      <path
         id="path835"
         style="display:inline;fill:#ffffff;fill-opacity:1;fill-rule:nonzero;stroke:#000000;stroke-width:0.26458333;stroke-linecap:round;stroke-dasharray:none;stroke-opacity:1;vector-effect:non-scaling-stroke;-inkscape-stroke:hairline"
         inkscape:label="CaloOuter"
         d="m 65.990056,30.150704 a 19.573233,19.573233 0 0 0 -1.354714,1.039594 l 0.888043,1.058439 a 18.191261,18.191261 0 0 1 1.259302,-0.966231 z" />
      <path
         id="path836"
         style="display:inline;fill:#ffffff;fill-opacity:1;fill-rule:nonzero;stroke:#000000;stroke-width:0.26458333;stroke-linecap:round;stroke-dasharray:none;stroke-opacity:1;vector-effect:non-scaling-stroke;-inkscape-stroke:hairline"
         inkscape:label="CaloOuter"
         d="m 67.067341,28.604746 a 20.29898,20.29898 0 0 0 -1.493845,0.95139 l 1.209191,1.726773 a 18.191261,18.191261 0 0 1 1.338282,-0.852765 z" />
      <path
         id="path837"
         style="display:inline;fill:#ffffff;fill-opacity:1;fill-rule:nonzero;stroke:#000000;stroke-width:0.26458333;stroke-linecap:round;stroke-dasharray:none;stroke-opacity:1;vector-effect:non-scaling-stroke;-inkscape-stroke:hairline"
         inkscape:label="CaloOuter"
         d="m 68.315812,27.096471 a 21.061016,21.061016 0 0 0 -1.629747,0.848351 l 1.434904,2.485322 a 18.191261,18.191261 0 0 1 1.407635,-0.732884 z" />
      <path
         id="path838"
         style="display:inline;fill:#ffffff;fill-opacity:1;fill-rule:nonzero;stroke:#000000;stroke-width:0.26458333;stroke-linecap:round;stroke-dasharray:none;stroke-opacity:1;vector-effect:non-scaling-stroke;-inkscape-stroke:hairline"
         inkscape:label="CaloOuter"
         d="m 72.094519,27.067602 a 19.790957,19.790957 0 0 0 -1.646591,0.519196 l 0.547258,1.503062 a 18.191261,18.191261 0 0 1 1.513481,-0.477099 z" />
      <path
         id="path839"
         style="display:inline;fill:#ffffff;fill-opacity:1;fill-rule:nonzero;stroke:#000000;stroke-width:0.26458333;stroke-linecap:round;stroke-dasharray:none;stroke-opacity:1;vector-effect:non-scaling-stroke;-inkscape-stroke:hairline"
         inkscape:label="CaloOuter"
         d="m 73.802052,26.819033 a 19.663757,19.663757 0 0 0 -1.674661,0.371252 l 0.381276,1.422476 a 18.191261,18.191261 0 0 1 1.549169,-0.343594 z" />
      <path
         id="path840"
         style="display:inline;fill:#ffffff;fill-opacity:1;fill-rule:nonzero;stroke:#000000;stroke-width:0.26458333;stroke-linecap:round;stroke-dasharray:none;stroke-opacity:1;vector-effect:non-scaling-stroke;-inkscape-stroke:hairline"
         inkscape:label="CaloOuter"
         d="m 75.437812,25.854012 a 20.40787,20.40787 0 0 0 -1.764859,0.232533 l 0.384883,2.182622 a 18.191261,18.191261 0 0 1 1.573221,-0.206876 z" />
      <path
         id="path841"
         style="display:inline;fill:#ffffff;fill-opacity:1;fill-rule:nonzero;stroke:#000000;stroke-width:0.26458333;stroke-linecap:round;stroke-dasharray:none;stroke-opacity:1;vector-effect:non-scaling-stroke;-inkscape-stroke:hairline"
         inkscape:label="CaloOuter"
         d="m 77.216714,25.904527 a 20.279574,20.279574 0 0 0 -1.767676,0.07735 l 0.182019,2.080391 a 18.191261,18.191261 0 0 1 1.585657,-0.06936 z" />
      <path
         id="path842"
         style="display:inline;fill:#ffffff;fill-opacity:1;fill-rule:nonzero;stroke:#000000;stroke-width:0.26458333;stroke-linecap:round;stroke-dasharray:none;stroke-opacity:1;vector-effect:non-scaling-stroke;-inkscape-stroke:hairline"
         inkscape:label="CaloOuter"
         d="m 75.283283,64.30086 -0.787258,7.377595 a 31.22574,25.59489 0 0 0 2.72069,0.10701 31.22574,25.59489 0 0 0 2.720679,-0.10701 L 79.150136,64.30086 a 22.186709,18.185842 0 0 1 -1.933421,0.07578 22.186709,18.185842 0 0 1 -1.933432,-0.07578 z" />
    </g>
    <path
       id="path844"
       style="display:inline;fill:none;stroke:#000000;stroke-width:0.26458333;stroke-linecap:round;stroke-dasharray:none;stroke-opacity:1;vector-effect:non-scaling-stroke;-inkscape-stroke:hairline"
       inkscape:label="InnerKeyHead"
       d="m 351.95286,78.407879 a 0.99959512,0.99959512 0 0 1 -0.9996,0.999595 0.99959512,0.99959512 0 0 1 -0.9996,-0.999595 0.99959512,0.99959512 0 0 1 0.9996,-0.9996 0.99959512,0.99959512 0 0 1 0.9996,0.9996 z" />
    <g
       id="g788"
       inkscape:label="Tracks"
       style="display:inline;fill:#ffffff;stroke:#000000;stroke-opacity:1;vector-effect:non-scaling-stroke;-inkscape-stroke:hairline;stroke-width:0.26458333;stroke-dasharray:none"
       transform="translate(273.73658,32.223701)">
      <path
         id="path788"
         style="display:inline;opacity:1;vector-effect:non-scaling-stroke;fill:none;stroke:#000000;stroke-width:0.264583;stroke-linecap:round;stroke-dasharray:none;stroke-opacity:1;-inkscape-stroke:hairline"
         d="m 93.003821,37.114722 c -4.337118,3.793744 -9.425573,6.781623 -14.837931,8.756084 m -0.851462,1.308177 c -0.320576,5.635454 -1.503595,11.399242 -3.49554,16.680658 m 7.575117,0.183418 C 78.987014,58.838767 77.539533,52.900688 77.138807,47.180735 m 0.999966,-0.610625 c 4.973657,2.857738 9.854225,6.293217 14.148606,10.096142 M 78.12422,45.765161 c 5.464817,-1.578012 11.429622,-1.931664 17.025308,-0.910299 M 88.149345,31.777426 C 85.931492,37.081818 82.414652,41.896476 78.0669,45.658507 m -1.450262,-0.2738 C 73.703033,40.497163 71.95622,34.609859 71.95034,28.919687 m -10.606642,9.214944 c 5.036408,2.286312 10.195029,4.843377 15.073914,7.448969 m -0.07913,1.078029 c -5.097432,2.439566 -10.683405,4.452534 -16.180155,5.764417 m 0.178426,0.730176 c 4.687688,-3.330534 10.256525,-5.672142 15.903186,-6.759515 m 0.698711,-1.172685 c -1.47667,-5.35369 -1.667521,-11.172601 -0.485153,-16.598933 m 0.428242,16.617274 C 75.355876,40.854841 74.363983,36.088582 74.072172,31.452476 m 2.524,13.948009 C 73.447738,41.333813 70.665531,36.59282 68.730383,31.82777 M 76.417612,45.5836 C 72.012915,42.21244 68.300341,37.761577 65.830399,32.795103 M 76.255084,45.911168 C 70.905272,44.345002 65.894433,41.245498 62.165375,37.102022 m 14.06207,8.938573 C 73.88923,45.672839 71.564072,45.124115 69.30833,44.407089 m 6.92246,1.942079 c -4.479549,0.669507 -9.247306,0.438725 -13.625432,-0.721834 m 13.99014,1.339998 c -3.381002,4.3751 -7.750331,8.118355 -12.638435,10.702812 m 6.332154,-1.524072 c 1.77147,-3.216241 3.937641,-6.372636 6.281334,-9.199192 m 0.308421,0.17812 c -1.919053,5.188073 -4.966053,10.071043 -8.821428,14.037808 M 76.921703,47.13926 c -1.610542,5.274778 -4.061241,10.401631 -7.203435,14.93416 m 6.150148,1.585346 c -0.340252,-5.483809 0.04751,-11.112407 1.131556,-16.498765 m 0.03953,0.0079 c -0.852496,4.65264 -2.042043,9.434764 -3.4887,13.938207 m 5.383872,0.600013 c -1.60666,-4.565608 -2.236499,-9.706038 -1.839012,-14.529746 m 9.406836,13.928358 C 82.160592,57.573622 78.936623,52.552107 77.463426,47.152841 m 9.292463,14.170041 C 83.754988,56.604616 80.708219,51.77477 77.744664,47.032958 m 12.019567,6.699995 C 85.480745,52.25288 81.365851,49.842023 77.95229,46.860991 M 93.438479,52.76718 C 88.02166,51.768168 82.717305,49.661869 78.059941,46.720936 m 0.156339,-0.476088 c 5.227594,0.325346 10.413917,1.970879 14.845335,4.763124 m 1.383987,-7.773144 C 89.525439,45.80922 83.729389,46.901052 78.206249,46.325436 M 78.045861,45.62591 c 4.295838,-2.87838 8.970218,-5.263719 13.832095,-7.024826 m -3.098231,-3.995741 c -2.940634,4.215272 -6.609056,7.952782 -10.754621,10.990911 m 3.86247,-15.091814 c -0.640331,5.091789 -2.090333,10.117735 -4.246112,14.774883 m -0.214742,-0.07243 c 1.136208,-5.38003 3.183009,-10.670316 6.017496,-15.38216 m -6.151422,15.359845 c 0.459049,-5.477347 1.936061,-10.966291 4.328813,-15.914721"
         sodipodi:nodetypes="cccccccccccccccccccccccccccccccccccccccccccccccccccccccccccccccccccccc" />
    </g>
    <path
       id="path843"
       style="display:inline;vector-effect:non-scaling-stroke;fill:#ffffff;fill-opacity:1;stroke:#000000;stroke-width:0.26458333;stroke-dasharray:none;stroke-opacity:1;-inkscape-stroke:hairline"
       d="m 350.95318,59.498047 a 18.909712,18.909714 0 0 0 -18.90944,18.909957 18.909712,18.909714 0 0 0 18.90944,18.90944 18.909712,18.909714 0 0 0 18.90996,-18.90944 18.909712,18.909714 0 0 0 -18.90996,-18.909957 z m 0,2.129069 a 16.780756,16.78076 0 0 1 16.78089,16.780888 16.780756,16.78076 0 0 1 -16.78089,16.780888 16.780756,16.78076 0 0 1 -16.78089,-16.780888 16.780756,16.78076 0 0 1 16.78089,-16.780888 z"
       inkscape:label="OuterKeyHead" />
    <g
       id="g1"
       inkscape:label="SpecularHighlights"
       style="fill:#ffffff;stroke:#000000;stroke-opacity:1;vector-effect:non-scaling-stroke;-inkscape-stroke:hairline;stroke-width:0.26458333;stroke-dasharray:none">
      <rect
         style="display:inline;vector-effect:non-scaling-stroke;fill:#ffffff;fill-opacity:1;stroke:#000000;stroke-width:0.26458333;stroke-dasharray:none;stroke-opacity:1;-inkscape-stroke:hairline"
         id="rect851"
         width="0.76368636"
         height="26.781982"
         x="349.72183"
         y="104.3014"
         rx="1.1708291"
         ry="0.31223121" />
      <rect
         style="display:inline;vector-effect:non-scaling-stroke;fill:#ffffff;fill-opacity:1;stroke:#000000;stroke-width:0.26458333;stroke-dasharray:none;stroke-opacity:1;-inkscape-stroke:hairline"
         id="rect852"
         width="0.73861861"
         height="28.06081"
         x="349.75983"
         y="134.03432"
         rx="1.1323969"
         ry="0.33952171" />
      <path
         id="rect308"
         style="display:inline;vector-effect:non-scaling-stroke;fill:#ffffff;fill-opacity:1;stroke:#000000;stroke-width:0.26458333;stroke-dasharray:none;stroke-opacity:1;-inkscape-stroke:hairline"
         d="m 350.12902,165.04987 c -0.0262,0 -0.0518,0.002 -0.0765,0.006 -0.16237,0.013 -0.28639,0.0623 -0.29197,0.12557 -2.5e-4,8.8e-4 -4.1e-4,0.002 -5.1e-4,0.003 -8e-5,6.3e-4 0,0.001 0,0.002 0,0.002 -2.3e-4,0.004 0,0.006 v 0.1142 c 0,5.9e-4 -7e-5,9.7e-4 0,0.002 -3.4e-4,0.005 0,0.01 0,0.0145 0,0.1506 0.16437,0.27182 0.36897,0.27182 0.20459,0 0.36948,-0.12122 0.36948,-0.27182 0,-0.004 -2.6e-4,-0.008 -5.1e-4,-0.0124 2.5e-4,-0.001 5.1e-4,-0.002 5.1e-4,-0.004 v -0.11989 c 0,-0.001 6e-5,-0.002 0,-0.003 -6e-5,-3.3e-4 -4.3e-4,-7e-4 -5.1e-4,-0.001 -0.005,-0.0635 -0.12955,-0.11312 -0.29249,-0.12609 -0.0247,-0.004 -0.0503,-0.006 -0.0765,-0.006 z" />
      <path
         id="path358"
         style="display:inline;fill:#ffffff;fill-opacity:1;stroke:#000000;stroke-width:0.26458333;stroke-dasharray:none;stroke-opacity:1;vector-effect:non-scaling-stroke;-inkscape-stroke:hairline"
         d="m 349.05511,132.03418 a 0.70312685,0.84525508 0 0 0 -0.14728,0.51728 0.70312685,0.84525508 0 0 0 0.15658,0.53175 h 0.67851 a 0.45865545,0.845469 0 0 1 -0.0925,-0.50901 0.45865545,0.845469 0 0 1 0.10594,-0.54002 z" />
      <path
         id="path304"
         style="display:inline;fill:#ffffff;fill-opacity:1;stroke:#000000;stroke-width:0.26458333;stroke-dasharray:none;stroke-opacity:1;vector-effect:non-scaling-stroke;-inkscape-stroke:hairline"
         d="m 349.05511,163.04573 a 0.70312685,0.84525508 0 0 0 -0.14728,0.51728 0.70312685,0.84525508 0 0 0 0.15658,0.53175 h 0.67851 a 0.45865545,0.845469 0 0 1 -0.0925,-0.50901 0.45865545,0.845469 0 0 1 0.10594,-0.54002 z" />
    </g>
  </g>
</svg>
